# xmcd
#
# Track frame offsets: 
#        150
#        18101
#        39192
#
# Disc length: 760 seconds
#
# Revision: 3
# Processed by: cddbd v1.5.2PL0 Copyright (c) Steve Scherf et al.
# Submitted via: ExactAudioCopyFreeDBPlugin 1.0
#
DISCID=1202f603
DTITLE=GARNET CROW - まぼろし
DYEAR=2006
DGENRE=JPop
TTITLE0=まぼろし
TTITLE1=Holy ground ～just like a "dejavu" arr.～
TTITLE2=まぼろし(instrumental)
EXTD=
EXTT0=
EXTT1=
EXTT2=
PLAYORDER=
